<?xml version="1.0" encoding="UTF-8"?>
<!DOCTYPE svg PUBLIC "-//W3C//DTD SVG 1.1//EN" "http://www.w3.org/Graphics/SVG/1.1/DTD/svg11.dtd">
<svg xmlns="http://www.w3.org/2000/svg" version="1.1" width="32px" height="32px" style="shape-rendering:geometricPrecision; text-rendering:geometricPrecision; image-rendering:optimizeQuality; fill-rule:evenodd; clip-rule:evenodd" xmlns:xlink="http://www.w3.org/1999/xlink">
<g><path style="opacity:0.722" fill="#0d4b6b" d="M 8.5,-0.5 C 9.5,-0.5 10.5,-0.5 11.5,-0.5C 15.858,0.10327 20.1913,1.26994 24.5,3C 26.4641,4.45095 27.7974,6.28428 28.5,8.5C 24.0877,3.30424 18.421,0.970903 11.5,1.5C 10.2089,2.54166 10.2089,3.70833 11.5,5C 10.5509,5.61723 9.71752,5.45057 9,4.5C 8.53566,5.09442 8.36899,5.76109 8.5,6.5C 7.15286,7.17119 5.98619,7.17119 5,6.5C 4.2917,7.38053 3.45837,8.0472 2.5,8.5C 4.5,5.5 6.5,2.5 8.5,-0.5 Z"/></g>
<g><path style="opacity:1" fill="#0f5770" d="M 11.5,1.5 C 18.421,0.970903 24.0877,3.30424 28.5,8.5C 28.6653,12.1817 28.4986,15.8484 28,19.5C 27.1482,18.4293 26.3149,17.4293 25.5,16.5C 24.391,16.5569 23.391,16.8902 22.5,17.5C 23.3897,15.2181 23.5564,12.8848 23,10.5C 19.1882,7.35958 15.3549,4.35958 11.5,1.5 Z"/></g>
<g><path style="opacity:1" fill="#125674" d="M 8.5,6.5 C 7.58302,8.24025 7.58302,10.5736 8.5,13.5C 7.84851,12.9094 7.18185,12.2427 6.5,11.5C 5.23023,13.7568 5.56356,15.7568 7.5,17.5C 6.57482,23.2798 9.24148,26.6132 15.5,27.5C 16.404,28.209 16.7373,29.209 16.5,30.5C 2.68565,28.8573 -1.98102,21.5239 2.5,8.5C 3.45837,8.0472 4.2917,7.38053 5,6.5C 5.98619,7.17119 7.15286,7.17119 8.5,6.5 Z"/></g>
<g><path style="opacity:1" fill="#14d6f2" d="M 11.5,1.5 C 15.3549,4.35958 19.1882,7.35958 23,10.5C 23.5564,12.8848 23.3897,15.2181 22.5,17.5C 21.5,17.5 20.5,17.5 19.5,17.5C 17.4392,15.6193 15.1059,13.9526 12.5,12.5C 11.2638,13.2458 9.93047,13.5792 8.5,13.5C 7.58302,10.5736 7.58302,8.24025 8.5,6.5C 8.36899,5.76109 8.53566,5.09442 9,4.5C 9.71752,5.45057 10.5509,5.61723 11.5,5C 10.2089,3.70833 10.2089,2.54166 11.5,1.5 Z"/></g>
<g><path style="opacity:1" fill="#21242a" d="M 8.5,13.5 C 9.93047,13.5792 11.2638,13.2458 12.5,12.5C 15.1059,13.9526 17.4392,15.6193 19.5,17.5C 19.5,17.8333 19.5,18.1667 19.5,18.5C 18.5,19.1667 17.5,19.8333 16.5,20.5C 14.485,19.4747 13.1517,17.808 12.5,15.5C 11.7189,16.7287 11.2189,18.062 11,19.5C 9.88732,18.695 8.72065,18.0283 7.5,17.5C 5.56356,15.7568 5.23023,13.7568 6.5,11.5C 7.18185,12.2427 7.84851,12.9094 8.5,13.5 Z"/></g>
<g><path style="opacity:1" fill="#77897c" d="M 25.5,16.5 C 25.8016,19.0593 25.4682,21.3926 24.5,23.5C 24.5,20.1667 22.8333,18.5 19.5,18.5C 19.5,18.1667 19.5,17.8333 19.5,17.5C 20.5,17.5 21.5,17.5 22.5,17.5C 23.391,16.8902 24.391,16.5569 25.5,16.5 Z"/></g>
<g><path style="opacity:0.978" fill="#0f4e6c" d="M 28.5,8.5 C 31.9279,15.8513 30.5946,22.3513 24.5,28C 23.255,28.7914 21.9217,29.2914 20.5,29.5C 20.2627,28.209 20.596,27.209 21.5,26.5C 22.8333,25.8333 23.8333,24.8333 24.5,23.5C 25.4682,21.3926 25.8016,19.0593 25.5,16.5C 26.3149,17.4293 27.1482,18.4293 28,19.5C 28.4986,15.8484 28.6653,12.1817 28.5,8.5 Z"/></g>
<g><path style="opacity:1" fill="#c99216" d="M 19.5,18.5 C 22.8333,18.5 24.5,20.1667 24.5,23.5C 24.1667,23.5 23.8333,23.5 23.5,23.5C 22.8658,22.0532 21.6991,21.3866 20,21.5C 18.4672,21.7728 16.9672,22.1062 15.5,22.5C 15.8333,21.8333 16.1667,21.1667 16.5,20.5C 17.5,19.8333 18.5,19.1667 19.5,18.5 Z"/></g>
<g><path style="opacity:1" fill="#d7dbdd" d="M 16.5,20.5 C 16.1667,21.1667 15.8333,21.8333 15.5,22.5C 14.1667,23.5 14.1667,24.5 15.5,25.5C 15.5,26.1667 15.5,26.8333 15.5,27.5C 9.24148,26.6132 6.57482,23.2798 7.5,17.5C 8.72065,18.0283 9.88732,18.695 11,19.5C 11.2189,18.062 11.7189,16.7287 12.5,15.5C 13.1517,17.808 14.485,19.4747 16.5,20.5 Z"/></g>
<g><path style="opacity:1" fill="#4f140b" d="M 23.5,23.5 C 22.8333,23.5 22.1667,23.5 21.5,23.5C 20.8333,23.8333 20.1667,24.1667 19.5,24.5C 17.5168,24.8432 16.1834,24.1765 15.5,22.5C 16.9672,22.1062 18.4672,21.7728 20,21.5C 21.6991,21.3866 22.8658,22.0532 23.5,23.5 Z"/></g>
<g><path style="opacity:1" fill="#d0d5dd" d="M 21.5,23.5 C 22.1667,23.5 22.8333,23.5 23.5,23.5C 23.8333,23.5 24.1667,23.5 24.5,23.5C 23.8333,24.8333 22.8333,25.8333 21.5,26.5C 21.5,25.5 21.5,24.5 21.5,23.5 Z"/></g>
<g><path style="opacity:1" fill="#ab2819" d="M 15.5,22.5 C 16.1834,24.1765 17.5168,24.8432 19.5,24.5C 19.762,25.9778 19.4287,27.3112 18.5,28.5C 17.7124,27.2299 16.7124,26.2299 15.5,25.5C 14.1667,24.5 14.1667,23.5 15.5,22.5 Z"/></g>
<g><path style="opacity:0.467" fill="#8c5c21" d="M 21.5,23.5 C 21.5,24.5 21.5,25.5 21.5,26.5C 20.596,27.209 20.2627,28.209 20.5,29.5C 20.5,30.1667 20.5,30.8333 20.5,31.5C 19.1667,31.5 17.8333,31.5 16.5,31.5C 16.5,31.1667 16.5,30.8333 16.5,30.5C 16.7373,29.209 16.404,28.209 15.5,27.5C 15.5,26.8333 15.5,26.1667 15.5,25.5C 16.7124,26.2299 17.7124,27.2299 18.5,28.5C 19.4287,27.3112 19.762,25.9778 19.5,24.5C 20.1667,24.1667 20.8333,23.8333 21.5,23.5 Z"/></g>
</svg>
